<svg xmlns="http://www.w3.org/2000/svg" xmlns:xlink="http://www.w3.org/1999/xlink" id="processonSvg1000" width="886.75" height="1356" viewBox="38.75 87 886.75 1356"><defs id="ProcessOnDefs1001"><marker id="ProcessOnMarker1011" markerHeight="10.551" markerUnits="userSpaceOnUse" markerWidth="16.236" orient="auto" refX="-1" refY="3.899" viewBox="-1 -1.376 16.236 10.551"><path id="ProcessOnPath1012" fill="#323232" stroke="#323232" stroke-width="2" d="M12.0 3.8990363547948754L0.0 7.798072709589751V0.0Z" transform="matrix(1.0,0.0,0.0,1.0,0.0,0.0)"/></marker><marker id="ProcessOnMarker1029" markerHeight="10.551" markerUnits="userSpaceOnUse" markerWidth="16.236" orient="auto" refX="-1" refY="3.899" viewBox="-1 -1.376 16.236 10.551"><path id="ProcessOnPath1030" fill="#323232" stroke="#323232" stroke-width="2" d="M12.0 3.8990363547948754L0.0 7.798072709589751V0.0Z" transform="matrix(1.0,0.0,0.0,1.0,0.0,0.0)"/></marker><marker id="ProcessOnMarker1036" markerHeight="10.551" markerUnits="userSpaceOnUse" markerWidth="16.236" orient="auto" refX="-1" refY="3.899" viewBox="-1 -1.376 16.236 10.551"><path id="ProcessOnPath1037" fill="#323232" stroke="#323232" stroke-width="2" d="M12.0 3.8990363547948754L0.0 7.798072709589751V0.0Z" transform="matrix(1.0,0.0,0.0,1.0,0.0,0.0)"/></marker><marker id="ProcessOnMarker1047" markerHeight="10.551" markerUnits="userSpaceOnUse" markerWidth="16.236" orient="auto" refX="-1" refY="3.899" viewBox="-1 -1.376 16.236 10.551"><path id="ProcessOnPath1048" fill="#323232" stroke="#323232" stroke-width="2" d="M12.0 3.8990363547948754L0.0 7.798072709589751V0.0Z" transform="matrix(1.0,0.0,0.0,1.0,0.0,0.0)"/></marker><marker id="ProcessOnMarker1054" markerHeight="10.551" markerUnits="userSpaceOnUse" markerWidth="16.236" orient="auto" refX="-1" refY="3.899" viewBox="-1 -1.376 16.236 10.551"><path id="ProcessOnPath1055" fill="#323232" stroke="#323232" stroke-width="2" d="M12.0 3.8990363547948754L0.0 7.798072709589751V0.0Z" transform="matrix(1.0,0.0,0.0,1.0,0.0,0.0)"/></marker><marker id="ProcessOnMarker1062" markerHeight="10.551" markerUnits="userSpaceOnUse" markerWidth="16.236" orient="auto" refX="-1" refY="3.899" viewBox="-1 -1.376 16.236 10.551"><path id="ProcessOnPath1063" fill="#323232" stroke="#323232" stroke-width="2" d="M12.0 3.8990363547948754L0.0 7.798072709589751V0.0Z" transform="matrix(1.0,0.0,0.0,1.0,0.0,0.0)"/></marker><marker id="ProcessOnMarker1074" markerHeight="10.551" markerUnits="userSpaceOnUse" markerWidth="16.236" orient="auto" refX="-1" refY="3.899" viewBox="-1 -1.376 16.236 10.551"><path id="ProcessOnPath1075" fill="#323232" stroke="#323232" stroke-width="2" d="M12.0 3.8990363547948754L0.0 7.798072709589751V0.0Z" transform="matrix(1.0,0.0,0.0,1.0,0.0,0.0)"/></marker><marker id="ProcessOnMarker1086" markerHeight="10.551" markerUnits="userSpaceOnUse" markerWidth="16.236" orient="auto" refX="-1" refY="3.899" viewBox="-1 -1.376 16.236 10.551"><path id="ProcessOnPath1087" fill="#323232" stroke="#323232" stroke-width="2" d="M12.0 3.8990363547948754L0.0 7.798072709589751V0.0Z" transform="matrix(1.0,0.0,0.0,1.0,0.0,0.0)"/></marker><marker id="ProcessOnMarker1098" markerHeight="10.551" markerUnits="userSpaceOnUse" markerWidth="16.236" orient="auto" refX="-1" refY="3.899" viewBox="-1 -1.376 16.236 10.551"><path id="ProcessOnPath1099" fill="#323232" stroke="#323232" stroke-width="2" d="M12.0 3.8990363547948754L0.0 7.798072709589751V0.0Z" transform="matrix(1.0,0.0,0.0,1.0,0.0,0.0)"/></marker><marker id="ProcessOnMarker1106" markerHeight="10.551" markerUnits="userSpaceOnUse" markerWidth="16.236" orient="auto" refX="-1" refY="3.899" viewBox="-1 -1.376 16.236 10.551"><path id="ProcessOnPath1107" fill="#323232" stroke="#323232" stroke-width="2" d="M12.0 3.8990363547948754L0.0 7.798072709589751V0.0Z" transform="matrix(1.0,0.0,0.0,1.0,0.0,0.0)"/></marker><marker id="ProcessOnMarker1126" markerHeight="10.551" markerUnits="userSpaceOnUse" markerWidth="16.236" orient="auto" refX="-1" refY="3.899" viewBox="-1 -1.376 16.236 10.551"><path id="ProcessOnPath1127" fill="#323232" stroke="#323232" stroke-width="2" d="M12.0 3.8990363547948754L0.0 7.798072709589751V0.0Z" transform="matrix(1.0,0.0,0.0,1.0,0.0,0.0)"/></marker><marker id="ProcessOnMarker1130" markerHeight="10.551" markerUnits="userSpaceOnUse" markerWidth="16.236" orient="auto" refX="-1" refY="3.899" viewBox="-1 -1.376 16.236 10.551"><path id="ProcessOnPath1131" fill="#323232" stroke="#323232" stroke-width="2" d="M12.0 3.8990363547948754L0.0 7.798072709589751V0.0Z" transform="matrix(1.0,0.0,0.0,1.0,0.0,0.0)"/></marker><marker id="ProcessOnMarker1134" markerHeight="10.551" markerUnits="userSpaceOnUse" markerWidth="16.236" orient="auto" refX="-1" refY="3.899" viewBox="-1 -1.376 16.236 10.551"><path id="ProcessOnPath1135" fill="#323232" stroke="#323232" stroke-width="2" d="M12.0 3.8990363547948754L0.0 7.798072709589751V0.0Z" transform="matrix(1.0,0.0,0.0,1.0,0.0,0.0)"/></marker><marker id="ProcessOnMarker1164" markerHeight="10.551" markerUnits="userSpaceOnUse" markerWidth="16.236" orient="auto" refX="-1" refY="3.899" viewBox="-1 -1.376 16.236 10.551"><path id="ProcessOnPath1165" fill="#323232" stroke="#323232" stroke-width="2" d="M12.0 3.8990363547948754L0.0 7.798072709589751V0.0Z" transform="matrix(1.0,0.0,0.0,1.0,0.0,0.0)"/></marker><marker id="ProcessOnMarker1168" markerHeight="10.551" markerUnits="userSpaceOnUse" markerWidth="16.236" orient="auto" refX="-1" refY="3.899" viewBox="-1 -1.376 16.236 10.551"><path id="ProcessOnPath1169" fill="#323232" stroke="#323232" stroke-width="2" d="M12.0 3.8990363547948754L0.0 7.798072709589751V0.0Z" transform="matrix(1.0,0.0,0.0,1.0,0.0,0.0)"/></marker><marker id="ProcessOnMarker1172" markerHeight="10.551" markerUnits="userSpaceOnUse" markerWidth="16.236" orient="auto" refX="-1" refY="3.899" viewBox="-1 -1.376 16.236 10.551"><path id="ProcessOnPath1173" fill="#323232" stroke="#323232" stroke-width="2" d="M12.0 3.8990363547948754L0.0 7.798072709589751V0.0Z" transform="matrix(1.0,0.0,0.0,1.0,0.0,0.0)"/></marker><marker id="ProcessOnMarker1188" markerHeight="10.551" markerUnits="userSpaceOnUse" markerWidth="16.236" orient="auto" refX="-1" refY="3.899" viewBox="-1 -1.376 16.236 10.551"><path id="ProcessOnPath1189" fill="#323232" stroke="#323232" stroke-width="2" d="M12.0 3.8990363547948754L0.0 7.798072709589751V0.0Z" transform="matrix(1.0,0.0,0.0,1.0,0.0,0.0)"/></marker><marker id="ProcessOnMarker1192" markerHeight="10.551" markerUnits="userSpaceOnUse" markerWidth="16.236" orient="auto" refX="-1" refY="3.899" viewBox="-1 -1.376 16.236 10.551"><path id="ProcessOnPath1193" fill="#323232" stroke="#323232" stroke-width="2" d="M12.0 3.8990363547948754L0.0 7.798072709589751V0.0Z" transform="matrix(1.0,0.0,0.0,1.0,0.0,0.0)"/></marker><marker id="ProcessOnMarker1196" markerHeight="10.551" markerUnits="userSpaceOnUse" markerWidth="16.236" orient="auto" refX="-1" refY="3.899" viewBox="-1 -1.376 16.236 10.551"><path id="ProcessOnPath1197" fill="#323232" stroke="#323232" stroke-width="2" d="M12.0 3.8990363547948754L0.0 7.798072709589751V0.0Z" transform="matrix(1.0,0.0,0.0,1.0,0.0,0.0)"/></marker><marker id="ProcessOnMarker1214" markerHeight="10.551" markerUnits="userSpaceOnUse" markerWidth="16.236" orient="auto" refX="-1" refY="3.899" viewBox="-1 -1.376 16.236 10.551"><path id="ProcessOnPath1215" fill="#323232" stroke="#323232" stroke-width="2" d="M12.0 3.8990363547948754L0.0 7.798072709589751V0.0Z" transform="matrix(1.0,0.0,0.0,1.0,0.0,0.0)"/></marker><marker id="ProcessOnMarker1222" markerHeight="10.551" markerUnits="userSpaceOnUse" markerWidth="16.236" orient="auto" refX="-1" refY="3.899" viewBox="-1 -1.376 16.236 10.551"><path id="ProcessOnPath1223" fill="#323232" stroke="#323232" stroke-width="2" d="M12.0 3.8990363547948754L0.0 7.798072709589751V0.0Z" transform="matrix(1.0,0.0,0.0,1.0,0.0,0.0)"/></marker><marker id="ProcessOnMarker1229" markerHeight="10.551" markerUnits="userSpaceOnUse" markerWidth="16.236" orient="auto" refX="-1" refY="3.899" viewBox="-1 -1.376 16.236 10.551"><path id="ProcessOnPath1230" fill="#323232" stroke="#323232" stroke-width="2" d="M12.0 3.8990363547948754L0.0 7.798072709589751V0.0Z" transform="matrix(1.0,0.0,0.0,1.0,0.0,0.0)"/></marker><marker id="ProcessOnMarker1233" markerHeight="10.551" markerUnits="userSpaceOnUse" markerWidth="16.236" orient="auto" refX="-1" refY="3.899" viewBox="-1 -1.376 16.236 10.551"><path id="ProcessOnPath1234" fill="#323232" stroke="#323232" stroke-width="2" d="M12.0 3.8990363547948754L0.0 7.798072709589751V0.0Z" transform="matrix(1.0,0.0,0.0,1.0,0.0,0.0)"/></marker><marker id="ProcessOnMarker1237" markerHeight="10.551" markerUnits="userSpaceOnUse" markerWidth="16.236" orient="auto" refX="-1" refY="3.899" viewBox="-1 -1.376 16.236 10.551"><path id="ProcessOnPath1238" fill="#323232" stroke="#323232" stroke-width="2" d="M12.0 3.8990363547948754L0.0 7.798072709589751V0.0Z" transform="matrix(1.0,0.0,0.0,1.0,0.0,0.0)"/></marker><marker id="ProcessOnMarker1244" markerHeight="10.551" markerUnits="userSpaceOnUse" markerWidth="16.236" orient="auto" refX="-1" refY="3.899" viewBox="-1 -1.376 16.236 10.551"><path id="ProcessOnPath1245" fill="#323232" stroke="#323232" stroke-width="2" d="M12.0 3.8990363547948754L0.0 7.798072709589751V0.0Z" transform="matrix(1.0,0.0,0.0,1.0,0.0,0.0)"/></marker></defs><g id="ProcessOnG1002"><path id="ProcessOnPath1003" fill="#fff" d="M38.75 87.0H925.5V1443.0H38.75V87.0Z"/><g id="ProcessOnG1004"><g id="ProcessOnG1005" opacity="1" transform="matrix(1.0,0.0,0.0,1.0,455.125,179.0)"><path id="ProcessOnPath1006" fill="#fff" stroke="#323232" stroke-dasharray="none" stroke-width="2" d="M0.0 4.0Q0.0 0.0 4.0 0.0L115.5 0.0Q119.5 0.0 119.5 4.0L119.5 42.0Q119.5 46.0 115.5 46.0L4.0 46.0Q0.0 46.0 0.0 42.0Z" opacity="1"/><g id="ProcessOnG1007" transform="matrix(1.0,0.0,0.0,1.0,10.0,13.625)"><text id="ProcessOnText1008" x="48.75" y="15.375" fill="#000" family="微软雅黑" font-family="微软雅黑" font-size="15" font-style="normal" font-weight="bold" size="15" text-anchor="middle" text-decoration="none">vue init</text></g></g><g id="ProcessOnG1009"><path id="ProcessOnPath1010" fill="none" stroke="#323232" stroke-dasharray="none" stroke-width="2" marker-end="url(#ProcessOnMarker1011)" d="M514.875 225.0L514.875 247.5L514.875 247.5L514.875 254.7639320225002"/></g><g id="ProcessOnG1013" opacity="1" transform="matrix(1.0,0.0,0.0,1.0,427.5,270.0)"><path id="ProcessOnPath1014" fill="#fff" stroke="#323232" stroke-dasharray="none" stroke-width="2" d="M0.0 26.0L87.375 0.0L174.75 26.0L87.375 52.0Z" opacity="1"/><g id="ProcessOnG1015" transform="matrix(1.0,0.0,0.0,1.0,10.0,18.134999999999998)"><text id="ProcessOnText1016" x="76.375" y="13.325" fill="#000" family="微软雅黑" font-family="微软雅黑" font-size="13" font-style="normal" font-weight="bold" size="13" text-anchor="middle" text-decoration="none">inPlace || exists(to)</text></g></g><g id="ProcessOnG1017" opacity="1" transform="matrix(1.0,0.0,0.0,1.0,676.25,242.0)"><path id="ProcessOnPath1018" fill="#fff" stroke="#323232" stroke-dasharray="none" stroke-width="2" d="M0.0 54.0L77.875 0.0L155.75 54.0L77.875 108.0Z" opacity="1"/><g id="ProcessOnG1019" transform="matrix(1.0,0.0,0.0,1.0,10.0,38.29)"><text id="ProcessOnText1020" x="66.875" y="13.325" fill="#000" family="微软雅黑" font-family="微软雅黑" font-size="13" font-style="normal" font-weight="bold" size="13" text-anchor="middle" text-decoration="none">Target directory exist</text><text id="ProcessOnText1021" x="66.875" y="29.575" fill="#000" family="微软雅黑" font-family="微软雅黑" font-size="13" font-style="normal" font-weight="bold" size="13" text-anchor="middle" text-decoration="none">s. Continue</text></g></g><g id="ProcessOnG1022" opacity="1" transform="matrix(1.0,0.0,0.0,1.0,182.25,242.0)"><path id="ProcessOnPath1023" fill="#fff" stroke="#323232" stroke-dasharray="none" stroke-width="2" d="M0.0 54.0L81.375 0.0L162.75 54.0L81.375 108.0Z" opacity="1"/><g id="ProcessOnG1024" transform="matrix(1.0,0.0,0.0,1.0,10.0,38.29)"><text id="ProcessOnText1025" x="70.375" y="13.325" fill="#000" family="微软雅黑" font-family="微软雅黑" font-size="13" font-style="normal" font-weight="bold" size="13" text-anchor="middle" text-decoration="none">Generate project in</text><text id="ProcessOnText1026" x="70.375" y="29.575" fill="#000" family="微软雅黑" font-family="微软雅黑" font-size="13" font-style="normal" font-weight="bold" size="13" text-anchor="middle" text-decoration="none">current directory</text></g></g><g id="ProcessOnG1027"><path id="ProcessOnPath1028" fill="none" stroke="#323232" stroke-dasharray="none" stroke-width="2" marker-end="url(#ProcessOnMarker1029)" d="M602.25 296.0L639.25 296.0L639.25 295.9999999999999L661.0139320225002 295.9999999999999"/><g id="ProcessOnG1031" transform="matrix(1.0,0.0,0.0,1.0,631.6319660112501,287.875)"><path id="ProcessOnPath1032" fill="#fff" d="M0 0H13.0V16.25H0Z" transform="matrix(1.0,0.0,0.0,1.0,-6.5,0.0)"/><text id="ProcessOnText1033" x="0" y="13.325" fill="#000" family="微软雅黑" font-family="微软雅黑" font-size="13" font-style="normal" font-weight="normal" size="13" text-anchor="middle" text-decoration="none">是</text></g></g><g id="ProcessOnG1034"><path id="ProcessOnPath1035" fill="none" stroke="#323232" stroke-dasharray="none" stroke-width="2" marker-end="url(#ProcessOnMarker1036)" d="M427.50000000000006 295.99999999999994L386.25 295.99999999999994L386.25 296.0L360.2360679774998 296.0"/><g id="ProcessOnG1038" transform="matrix(1.0,0.0,0.0,1.0,393.86803398874986,287.87499999999994)"><path id="ProcessOnPath1039" fill="#fff" d="M0 0H13.0V16.25H0Z" transform="matrix(1.0,0.0,0.0,1.0,-6.5,0.0)"/><text id="ProcessOnText1040" x="0" y="13.325" fill="#000" family="微软雅黑" font-family="微软雅黑" font-size="13" font-style="normal" font-weight="normal" size="13" text-anchor="middle" text-decoration="none">是</text></g></g><g id="ProcessOnG1041" opacity="1" transform="matrix(1.0,0.0,0.0,1.0,453.5,383.0)"><path id="ProcessOnPath1042" fill="#fff" stroke="#323232" stroke-dasharray="none" stroke-width="2" d="M0.0 0.0L122.75 0.0L122.75 39.0L0.0 39.0Z" opacity="1"/><g id="ProcessOnG1043" transform="matrix(1.0,0.0,0.0,1.0,10.0,11.375)"><text id="ProcessOnText1044" x="50.375" y="13.325" fill="#000" family="微软雅黑" font-family="微软雅黑" font-size="13" font-style="normal" font-weight="bold" size="13" text-anchor="middle" text-decoration="none">function run()</text></g></g><g id="ProcessOnG1045"><path id="ProcessOnPath1046" fill="none" stroke="#323232" stroke-dasharray="none" stroke-width="2" marker-end="url(#ProcessOnMarker1047)" d="M514.875 322.0L514.875 352.5L514.875 352.5L514.875 367.7639320225002"/><g id="ProcessOnG1049" transform="matrix(1.0,0.0,0.0,1.0,514.875,336.75696601125014)"><path id="ProcessOnPath1050" fill="#fff" d="M0 0H13.0V16.25H0Z" transform="matrix(1.0,0.0,0.0,1.0,-6.5,0.0)"/><text id="ProcessOnText1051" x="0" y="13.325" fill="#000" family="微软雅黑" font-family="微软雅黑" font-size="13" font-style="normal" font-weight="normal" size="13" text-anchor="middle" text-decoration="none">否</text></g></g><g id="ProcessOnG1052"><path id="ProcessOnPath1053" fill="none" stroke="#323232" stroke-dasharray="none" stroke-width="2" marker-end="url(#ProcessOnMarker1054)" d="M514.875 422.0L514.875 446.0L514.875 446.0L514.875 454.7639320225002"/></g><g id="ProcessOnG1056" opacity="1" transform="matrix(1.0,0.0,0.0,1.0,454.875,470.0)"><path id="ProcessOnPath1057" fill="#fff" stroke="#323232" stroke-dasharray="none" stroke-width="2" d="M0.0 28.0L60.0 0.0L120.0 28.0L60.0 56.0Z" opacity="1"/><g id="ProcessOnG1058" transform="matrix(1.0,0.0,0.0,1.0,10.0,20.155)"><text id="ProcessOnText1059" x="49" y="13.325" fill="#000" family="微软雅黑" font-family="微软雅黑" font-size="13" font-style="normal" font-weight="bold" size="13" text-anchor="middle" text-decoration="none">--offline</text></g></g><g id="ProcessOnG1060"><path id="ProcessOnPath1061" fill="none" stroke="#323232" stroke-dasharray="none" stroke-width="2" marker-end="url(#ProcessOnMarker1062)" d="M574.875 498.0L621.4375 498.0L621.4375 498.0L652.7639320225002 498.0"/><g id="ProcessOnG1064" transform="matrix(1.0,0.0,0.0,1.0,613.8194660112501,489.875)"><path id="ProcessOnPath1065" fill="#fff" d="M0 0H13.0V16.25H0Z" transform="matrix(1.0,0.0,0.0,1.0,-6.5,0.0)"/><text id="ProcessOnText1066" x="0" y="13.325" fill="#000" family="微软雅黑" font-family="微软雅黑" font-size="13" font-style="normal" font-weight="normal" size="13" text-anchor="middle" text-decoration="none">是</text></g></g><g id="ProcessOnG1067" opacity="1" transform="matrix(1.0,0.0,0.0,1.0,672.875,456.0)"><path id="ProcessOnPath1068" fill="#fff" stroke="#323232" stroke-dasharray="none" stroke-width="2" d="M0.0 42.0L78.0625 0.0L156.125 42.0L78.0625 84.0Z" opacity="1"/><g id="ProcessOnG1069" transform="matrix(1.0,0.0,0.0,1.0,10.0,26.17)"><text id="ProcessOnText1070" x="67.063" y="13.325" fill="#000" family="微软雅黑" font-family="微软雅黑" font-size="13" font-style="normal" font-weight="bold" size="13" text-anchor="middle" text-decoration="none">本地是否缓存了templa</text><text id="ProcessOnText1071" x="67.063" y="29.575" fill="#000" family="微软雅黑" font-family="微软雅黑" font-size="13" font-style="normal" font-weight="bold" size="13" text-anchor="middle" text-decoration="none">te</text></g></g><g id="ProcessOnG1072"><path id="ProcessOnPath1073" fill="none" stroke="#323232" stroke-dasharray="none" stroke-width="2" marker-end="url(#ProcessOnMarker1074)" d="M750.9375 540.0L750.9375 786.0L614.0485679774998 786.0"/><g id="ProcessOnG1076" transform="matrix(1.0,0.0,0.0,1.0,750.9375,723.3194660112501)"><path id="ProcessOnPath1077" fill="#fff" d="M0 0H13.0V16.25H0Z" transform="matrix(1.0,0.0,0.0,1.0,-6.5,0.0)"/><text id="ProcessOnText1078" x="0" y="13.325" fill="#000" family="微软雅黑" font-family="微软雅黑" font-size="13" font-style="normal" font-weight="normal" size="13" text-anchor="middle" text-decoration="none">是</text></g></g><g id="ProcessOnG1079"><path id="ProcessOnPath1080" fill="none" stroke="#323232" stroke-dasharray="none" stroke-width="2" d="M829.0 498.0L864.0 498.0L864.0 498.0L899.0 498.0"/><g id="ProcessOnG1081" transform="matrix(1.0,0.0,0.0,1.0,864.0,489.875)"><path id="ProcessOnPath1082" fill="#fff" d="M0 0H13.0V16.25H0Z" transform="matrix(1.0,0.0,0.0,1.0,-6.5,0.0)"/><text id="ProcessOnText1083" x="0" y="13.325" fill="#000" family="微软雅黑" font-family="微软雅黑" font-size="13" font-style="normal" font-weight="normal" size="13" text-anchor="middle" text-decoration="none">否</text></g></g><g id="ProcessOnG1084"><path id="ProcessOnPath1085" fill="none" stroke="#323232" stroke-dasharray="none" stroke-width="2" marker-end="url(#ProcessOnMarker1086)" d="M514.875 526.0L514.875 554.5L514.875 554.5L514.875 567.7639320225002"/><g id="ProcessOnG1088" transform="matrix(1.0,0.0,0.0,1.0,514.875,538.7569660112501)"><path id="ProcessOnPath1089" fill="#fff" d="M0 0H13.0V16.25H0Z" transform="matrix(1.0,0.0,0.0,1.0,-6.5,0.0)"/><text id="ProcessOnText1090" x="0" y="13.325" fill="#000" family="微软雅黑" font-family="微软雅黑" font-size="13" font-style="normal" font-weight="normal" size="13" text-anchor="middle" text-decoration="none">否</text></g></g><g id="ProcessOnG1091" opacity="1" transform="matrix(1.0,0.0,0.0,1.0,446.125,589.0)"><path id="ProcessOnPath1092" fill="#fff" stroke="#323232" stroke-dasharray="none" stroke-width="2" d="M0.0 0.0L137.5 0.0L137.5 34.0L0.0 34.0Z" opacity="1"/><g id="ProcessOnG1093" transform="matrix(1.0,0.0,0.0,1.0,10.0,0.75)"><text id="ProcessOnText1094" x="57.75" y="13.325" fill="#000" family="微软雅黑" font-family="微软雅黑" font-size="13" font-style="normal" font-weight="bold" size="13" text-anchor="middle" text-decoration="none">checkVersion</text><text id="ProcessOnText1095" x="57.75" y="29.575" fill="#000" family="微软雅黑" font-family="微软雅黑" font-size="13" font-style="normal" font-weight="bold" size="13" text-anchor="middle" text-decoration="none">检查 vue-cli 版本</text></g></g><g id="ProcessOnG1096"><path id="ProcessOnPath1097" fill="none" stroke="#323232" stroke-dasharray="none" stroke-width="2" marker-end="url(#ProcessOnMarker1098)" d="M514.875 623.0L514.875 648.5L514.875 648.5L514.875 658.7639320225002"/></g><g id="ProcessOnG1100" opacity="1" transform="matrix(1.0,0.0,0.0,1.0,433.4375,679.0)"><path id="ProcessOnPath1101" fill="#fff" stroke="#323232" stroke-dasharray="none" stroke-width="2" d="M0.0 0.0L162.875 0.0L162.875 31.0L0.0 31.0Z" opacity="1"/><g id="ProcessOnG1102" transform="matrix(1.0,0.0,0.0,1.0,10.0,7.375)"><text id="ProcessOnText1103" x="70.438" y="13.325" fill="#000" family="微软雅黑" font-family="微软雅黑" font-size="13" font-style="normal" font-weight="bold" size="13" text-anchor="middle" text-decoration="none">下载模板（download）</text></g></g><g id="ProcessOnG1104"><path id="ProcessOnPath1105" fill="none" stroke="#323232" stroke-dasharray="none" stroke-width="2" marker-end="url(#ProcessOnMarker1106)" d="M514.875 710.0L514.875 739.0L514.875 739.0L514.875 752.7639320225002"/></g><g id="ProcessOnG1108" opacity="1" transform="matrix(1.0,0.0,0.0,1.0,430.9375,768.0)"><path id="ProcessOnPath1109" fill="#fff" stroke="#323232" stroke-dasharray="none" stroke-width="2" d="M0.0 0.0L167.875 0.0L167.875 36.0L0.0 36.0Z" opacity="1"/><g id="ProcessOnG1110" transform="matrix(1.0,0.0,0.0,1.0,10.0,9.875)"><text id="ProcessOnText1111" x="72.938" y="13.325" fill="#000" family="微软雅黑" font-family="微软雅黑" font-size="13" font-style="normal" font-weight="bold" size="13" text-anchor="middle" text-decoration="none">生成模板（generate）</text></g></g><g id="ProcessOnG1112" opacity="1" transform="matrix(1.0,0.0,0.0,1.0,232.53125,880.0)"><path id="ProcessOnPath1113" fill="#fff" stroke="#323232" stroke-dasharray="none" stroke-width="2" d="M0.0 0.0L107.9375 0.0L107.9375 34.0L0.0 34.0Z" opacity="1"/><g id="ProcessOnG1114" transform="matrix(1.0,0.0,0.0,1.0,10.0,8.875)"><text id="ProcessOnText1115" x="42.969" y="13.325" fill="#000" family="微软雅黑" font-family="微软雅黑" font-size="13" font-style="normal" font-weight="bold" size="13" text-anchor="middle" text-decoration="none">getOptions</text></g></g><g id="ProcessOnG1116" opacity="1" transform="matrix(1.0,0.0,0.0,1.0,682.4375,880.0)"><path id="ProcessOnPath1117" fill="#fff" stroke="#323232" stroke-dasharray="none" stroke-width="2" d="M0.0 0.0L137.0 0.0L137.0 29.0L0.0 29.0Z" opacity="1"/><g id="ProcessOnG1118" transform="matrix(1.0,0.0,0.0,1.0,10.0,6.375)"><text id="ProcessOnText1119" x="57.5" y="13.325" fill="#000" family="微软雅黑" font-family="微软雅黑" font-size="13" font-style="normal" font-weight="bold" size="13" text-anchor="middle" text-decoration="none">metalsmith.use</text></g></g><g id="ProcessOnG1120" opacity="1" transform="matrix(1.0,0.0,0.0,1.0,422.375,880.0)"><path id="ProcessOnPath1121" fill="#fff" stroke="#323232" stroke-dasharray="none" stroke-width="2" d="M0.0 0.0L185.0 0.0L185.0 34.0L0.0 34.0Z" opacity="1"/><g id="ProcessOnG1122" transform="matrix(1.0,0.0,0.0,1.0,10.0,8.875)"><text id="ProcessOnText1123" x="81.5" y="13.325" fill="#000" family="微软雅黑" font-family="微软雅黑" font-size="13" font-style="normal" font-weight="bold" size="13" text-anchor="middle" text-decoration="none">Handlebars.registerHelper</text></g></g><g id="ProcessOnG1124"><path id="ProcessOnPath1125" fill="none" stroke="#323232" stroke-dasharray="none" stroke-width="2" marker-end="url(#ProcessOnMarker1126)" d="M514.875 804.0L514.875 842.0L286.5 842.0L286.5 864.7639320225002"/></g><g id="ProcessOnG1128"><path id="ProcessOnPath1129" fill="none" stroke="#323232" stroke-dasharray="none" stroke-width="2" marker-end="url(#ProcessOnMarker1130)" d="M514.875 804.0L514.875 842.0L514.875 842.0L514.875 864.7639320225002"/></g><g id="ProcessOnG1132"><path id="ProcessOnPath1133" fill="none" stroke="#323232" stroke-dasharray="none" stroke-width="2" marker-end="url(#ProcessOnMarker1134)" d="M514.875 804.0L514.875 842.0L750.9375 842.0L750.9375 864.7639320225002"/></g><g id="ProcessOnG1136" opacity="1" transform="matrix(1.0,0.0,0.0,1.0,452.3125,1165.0)"><path id="ProcessOnPath1137" fill="#fff" stroke="#323232" stroke-dasharray="none" stroke-width="2" d="M0.0 0.0L125.125 0.0L125.125 42.0L0.0 42.0Z" opacity="1"/><g id="ProcessOnG1138" transform="matrix(1.0,0.0,0.0,1.0,10.0,12.875)"><text id="ProcessOnText1139" x="51.563" y="13.325" fill="#000" family="微软雅黑" font-family="微软雅黑" font-size="13" font-style="normal" font-weight="bold" size="13" text-anchor="middle" text-decoration="none">metalsmith.build</text></g></g><g id="ProcessOnG1140" opacity="1" transform="matrix(1.0,0.0,0.0,1.0,682.4375,975.0)"><path id="ProcessOnPath1141" fill="#fff" stroke="#323232" stroke-dasharray="none" stroke-width="2" d="M0.0 0.0L34.5625 0.0L34.5625 111.0L0.0 111.0Z" opacity="1"/><g id="ProcessOnG1142" transform="matrix(1.0,0.0,0.0,1.0,10.0,14.875)"><text id="ProcessOnText1143" x="6.281" y="13.325" fill="#000" family="微软雅黑" font-family="微软雅黑" font-size="13" font-style="normal" font-weight="bold" size="13" text-anchor="middle" text-decoration="none">命</text><text id="ProcessOnText1144" x="6.281" y="29.575" fill="#000" family="微软雅黑" font-family="微软雅黑" font-size="13" font-style="normal" font-weight="bold" size="13" text-anchor="middle" text-decoration="none">令</text><text id="ProcessOnText1145" x="6.281" y="45.825" fill="#000" family="微软雅黑" font-family="微软雅黑" font-size="13" font-style="normal" font-weight="bold" size="13" text-anchor="middle" text-decoration="none">行</text><text id="ProcessOnText1146" x="6.281" y="62.075" fill="#000" family="微软雅黑" font-family="微软雅黑" font-size="13" font-style="normal" font-weight="bold" size="13" text-anchor="middle" text-decoration="none">交</text><text id="ProcessOnText1147" x="6.281" y="78.325" fill="#000" family="微软雅黑" font-family="微软雅黑" font-size="13" font-style="normal" font-weight="bold" size="13" text-anchor="middle" text-decoration="none">互</text></g></g><g id="ProcessOnG1148" opacity="1" transform="matrix(1.0,0.0,0.0,1.0,732.25,975.0)"><path id="ProcessOnPath1149" fill="#fff" stroke="#323232" stroke-dasharray="none" stroke-width="2" d="M0.0 0.0L37.375 0.0L37.375 111.0L0.0 111.0Z" opacity="1"/><g id="ProcessOnG1150" transform="matrix(1.0,0.0,0.0,1.0,10.0,23.0)"><text id="ProcessOnText1151" x="7.688" y="13.325" fill="#000" family="微软雅黑" font-family="微软雅黑" font-size="13" font-style="normal" font-weight="bold" size="13" text-anchor="middle" text-decoration="none">文</text><text id="ProcessOnText1152" x="7.688" y="29.575" fill="#000" family="微软雅黑" font-family="微软雅黑" font-size="13" font-style="normal" font-weight="bold" size="13" text-anchor="middle" text-decoration="none">件</text><text id="ProcessOnText1153" x="7.688" y="45.825" fill="#000" family="微软雅黑" font-family="微软雅黑" font-size="13" font-style="normal" font-weight="bold" size="13" text-anchor="middle" text-decoration="none">过</text><text id="ProcessOnText1154" x="7.688" y="62.075" fill="#000" family="微软雅黑" font-family="微软雅黑" font-size="13" font-style="normal" font-weight="bold" size="13" text-anchor="middle" text-decoration="none">滤</text></g></g><g id="ProcessOnG1155" opacity="1" transform="matrix(1.0,0.0,0.0,1.0,783.4375,975.0)"><path id="ProcessOnPath1156" fill="#fff" stroke="#323232" stroke-dasharray="none" stroke-width="2" d="M0.0 0.0L36.0 0.0L36.0 111.0L0.0 111.0Z" opacity="1"/><g id="ProcessOnG1157" transform="matrix(1.0,0.0,0.0,1.0,10.0,23.0)"><text id="ProcessOnText1158" x="7" y="13.325" fill="#000" family="微软雅黑" font-family="微软雅黑" font-size="13" font-style="normal" font-weight="bold" size="13" text-anchor="middle" text-decoration="none">模</text><text id="ProcessOnText1159" x="7" y="29.575" fill="#000" family="微软雅黑" font-family="微软雅黑" font-size="13" font-style="normal" font-weight="bold" size="13" text-anchor="middle" text-decoration="none">版</text><text id="ProcessOnText1160" x="7" y="45.825" fill="#000" family="微软雅黑" font-family="微软雅黑" font-size="13" font-style="normal" font-weight="bold" size="13" text-anchor="middle" text-decoration="none">渲</text><text id="ProcessOnText1161" x="7" y="62.075" fill="#000" family="微软雅黑" font-family="微软雅黑" font-size="13" font-style="normal" font-weight="bold" size="13" text-anchor="middle" text-decoration="none">染</text></g></g><g id="ProcessOnG1162"><path id="ProcessOnPath1163" fill="none" stroke="#323232" stroke-dasharray="none" stroke-width="2" marker-end="url(#ProcessOnMarker1164)" d="M750.9375 909.0L750.9375 942.0L699.71875 942.0L699.71875 959.7639320225002"/></g><g id="ProcessOnG1166"><path id="ProcessOnPath1167" fill="none" stroke="#323232" stroke-dasharray="none" stroke-width="2" marker-end="url(#ProcessOnMarker1168)" d="M750.9375 909.0L750.9375 942.0L750.9375 942.0L750.9375 959.7639320225002"/></g><g id="ProcessOnG1170"><path id="ProcessOnPath1171" fill="none" stroke="#323232" stroke-dasharray="none" stroke-width="2" marker-end="url(#ProcessOnMarker1172)" d="M750.9375 909.0L750.9375 942.0L801.4375 942.0L801.4375 959.7639320225002"/></g><g id="ProcessOnG1174" opacity="1" transform="matrix(1.0,0.0,0.0,1.0,93.0,1005.0)"><path id="ProcessOnPath1175" fill="#fff" stroke="#323232" stroke-dasharray="none" stroke-width="2" d="M0.0 0.0L109.0 0.0L109.0 34.0L0.0 34.0Z" opacity="1"/><g id="ProcessOnG1176" transform="matrix(1.0,0.0,0.0,1.0,10.0,8.875)"><text id="ProcessOnText1177" x="43.5" y="13.325" fill="#000" family="微软雅黑" font-family="微软雅黑" font-size="13" font-style="normal" font-weight="bold" size="13" text-anchor="middle" text-decoration="none">setDefault</text></g></g><g id="ProcessOnG1178" opacity="1" transform="matrix(1.0,0.0,0.0,1.0,215.0,1005.0)"><path id="ProcessOnPath1179" fill="#fff" stroke="#323232" stroke-dasharray="none" stroke-width="2" d="M0.0 0.0L143.0 0.0L143.0 34.0L0.0 34.0Z" opacity="1"/><g id="ProcessOnG1180" transform="matrix(1.0,0.0,0.0,1.0,10.0,8.875)"><text id="ProcessOnText1181" x="60.5" y="13.325" fill="#000" family="微软雅黑" font-family="微软雅黑" font-size="13" font-style="normal" font-weight="bold" size="13" text-anchor="middle" text-decoration="none">setValidateName</text></g></g><g id="ProcessOnG1182" opacity="1" transform="matrix(1.0,0.0,0.0,1.0,376.0,1005.0)"><path id="ProcessOnPath1183" fill="#fff" stroke="#323232" stroke-dasharray="none" stroke-width="2" d="M0.0 0.0L111.0 0.0L111.0 34.0L0.0 34.0Z" opacity="1"/><g id="ProcessOnG1184" transform="matrix(1.0,0.0,0.0,1.0,10.0,8.875)"><text id="ProcessOnText1185" x="44.5" y="13.325" fill="#000" family="微软雅黑" font-family="微软雅黑" font-size="13" font-style="normal" font-weight="bold" size="13" text-anchor="middle" text-decoration="none">getGitUser</text></g></g><g id="ProcessOnG1186"><path id="ProcessOnPath1187" fill="none" stroke="#323232" stroke-dasharray="none" stroke-width="2" marker-end="url(#ProcessOnMarker1188)" d="M286.5 914.0L286.5 959.5L147.5 959.5L147.5 989.7639320225002"/></g><g id="ProcessOnG1190"><path id="ProcessOnPath1191" fill="none" stroke="#323232" stroke-dasharray="none" stroke-width="2" marker-end="url(#ProcessOnMarker1192)" d="M286.5 914.0L286.5 959.5L286.5 959.5L286.5 989.7639320225002"/></g><g id="ProcessOnG1194"><path id="ProcessOnPath1195" fill="none" stroke="#323232" stroke-dasharray="none" stroke-width="2" marker-end="url(#ProcessOnMarker1196)" d="M286.5 914.0L286.5 959.5L440.2058823529412 959.5L440.2058823529412 989.7639320225002"/></g><g id="ProcessOnG1198"><path id="ProcessOnPath1199" fill="none" stroke="#323232" stroke-dasharray="none" stroke-width="2" d="M147.5 1039.0L147.5 1097.0L309.0 1097.0"/></g><g id="ProcessOnG1200"><path id="ProcessOnPath1201" fill="none" stroke="#323232" stroke-dasharray="none" stroke-width="2" d="M431.5 1039.0L431.5 1097.0L309.0 1097.0"/></g><g id="ProcessOnG1202"><path id="ProcessOnPath1203" fill="none" stroke="#323232" stroke-dasharray="none" stroke-width="2" d="M750.9375 1086.0L750.9375 1123.0L511.0 1123.0"/></g><g id="ProcessOnG1204" opacity="1" transform="matrix(1.0,0.0,0.0,1.0,449.21875,1254.0)"><path id="ProcessOnPath1205" fill="#fff" stroke="#323232" stroke-dasharray="none" stroke-width="2" d="M0.0 4.0Q0.0 0.0 4.0 0.0L127.3125 0.0Q131.3125 0.0 131.3125 4.0L131.3125 26.0Q131.3125 30.0 127.3125 30.0L4.0 30.0Q0.0 30.0 0.0 26.0Z" opacity="1"/><g id="ProcessOnG1206" transform="matrix(1.0,0.0,0.0,1.0,10.0,6.875)"><text id="ProcessOnText1207" x="54.656" y="13.325" fill="#000" family="微软雅黑" font-family="微软雅黑" font-size="13" font-style="normal" font-weight="normal" size="13" text-anchor="middle" text-decoration="none">输出信息</text></g></g><g id="ProcessOnG1208" opacity="1" transform="matrix(1.0,0.0,0.0,1.0,454.484375,107.0)"><path id="ProcessOnPath1209" fill="#fff" stroke="#323232" stroke-dasharray="none" stroke-width="2" d="M0.0 4.0Q0.0 0.0 4.0 0.0L116.78125 0.0Q120.78125 0.0 120.78125 4.0L120.78125 33.0Q120.78125 37.0 116.78125 37.0L4.0 37.0Q0.0 37.0 0.0 33.0Z" opacity="1"/><g id="ProcessOnG1210" transform="matrix(1.0,0.0,0.0,1.0,10.0,10.375)"><text id="ProcessOnText1211" x="49.391" y="13.325" fill="#000" family="微软雅黑" font-family="微软雅黑" font-size="13" font-style="normal" font-weight="bold" size="13" text-anchor="middle" text-decoration="none">start</text></g></g><g id="ProcessOnG1212"><path id="ProcessOnPath1213" fill="none" stroke="#323232" stroke-dasharray="none" stroke-width="2" marker-end="url(#ProcessOnMarker1214)" d="M514.875 144.0L514.875 161.5L514.875 161.5L514.875 163.7639320225002"/></g><g id="ProcessOnG1216" opacity="1" transform="matrix(1.0,0.0,0.0,1.0,454.484375,1386.0)"><path id="ProcessOnPath1217" fill="#fff" stroke="#323232" stroke-dasharray="none" stroke-width="2" d="M0.0 4.0Q0.0 0.0 4.0 0.0L116.78125 0.0Q120.78125 0.0 120.78125 4.0L120.78125 33.0Q120.78125 37.0 116.78125 37.0L4.0 37.0Q0.0 37.0 0.0 33.0Z" opacity="1"/><g id="ProcessOnG1218" transform="matrix(1.0,0.0,0.0,1.0,10.0,10.375)"><text id="ProcessOnText1219" x="49.391" y="13.325" fill="#000" family="微软雅黑" font-family="微软雅黑" font-size="13" font-style="normal" font-weight="bold" size="13" text-anchor="middle" text-decoration="none">end</text></g></g><g id="ProcessOnG1220"><path id="ProcessOnPath1221" fill="none" stroke="#323232" stroke-dasharray="none" stroke-width="2" marker-end="url(#ProcessOnMarker1222)" d="M754.125 350.0L754.125 402.5L591.4860679774998 402.5"/><g id="ProcessOnG1224" transform="matrix(1.0,0.0,0.0,1.0,699.0555339887499,394.375)"><path id="ProcessOnPath1225" fill="#fff" d="M0 0H13.0V16.25H0Z" transform="matrix(1.0,0.0,0.0,1.0,-6.5,0.0)"/><text id="ProcessOnText1226" x="0" y="13.325" fill="#000" family="微软雅黑" font-family="微软雅黑" font-size="13" font-style="normal" font-weight="normal" size="13" text-anchor="middle" text-decoration="none">是</text></g></g><g id="ProcessOnG1227"><path id="ProcessOnPath1228" fill="none" stroke="#323232" stroke-dasharray="none" stroke-width="2" marker-end="url(#ProcessOnMarker1229)" d="M514.875 1284.0L514.875 1335.0L514.875 1335.0L514.875 1370.7639320225003"/></g><g id="ProcessOnG1231"><path id="ProcessOnPath1232" fill="none" stroke="#323232" stroke-dasharray="none" stroke-width="2" marker-end="url(#ProcessOnMarker1233)" d="M514.875 1207.0L514.875 1230.5L514.875 1230.5L514.875 1238.7639320225003"/></g><g id="ProcessOnG1235"><path id="ProcessOnPath1236" fill="none" stroke="#323232" stroke-dasharray="none" stroke-width="2" marker-end="url(#ProcessOnMarker1237)" d="M263.625 350.0L263.625 402.5L438.2639320225002 402.5"/><g id="ProcessOnG1239" transform="matrix(1.0,0.0,0.0,1.0,324.69446601125014,394.375)"><path id="ProcessOnPath1240" fill="#fff" d="M0 0H13.0V16.25H0Z" transform="matrix(1.0,0.0,0.0,1.0,-6.5,0.0)"/><text id="ProcessOnText1241" x="0" y="13.325" fill="#000" family="微软雅黑" font-family="微软雅黑" font-size="13" font-style="normal" font-weight="normal" size="13" text-anchor="middle" text-decoration="none">是</text></g></g><g id="ProcessOnG1242"><path id="ProcessOnPath1243" fill="none" stroke="#323232" stroke-dasharray="none" stroke-width="2" marker-end="url(#ProcessOnMarker1244)" d="M514.875 914.0L514.875 1039.5L514.875 1039.5L514.875 1149.7639320225003"/></g><g id="ProcessOnG1246"><path id="ProcessOnPath1247" fill="none" stroke="#323232" stroke-dasharray="none" stroke-width="2" d="M286.5 1039.0L286.5 1123.0L515.0 1123.0"/></g><g id="ProcessOnG1248"><path id="ProcessOnPath1249" fill="none" stroke="#323232" stroke-dasharray="none" stroke-width="2" d="M832.0 296.0L899.0 296.0L899.0 1339.0L516.0 1339.0L516.0 1340.0"/><g id="ProcessOnG1250" transform="matrix(1.0,0.0,0.0,1.0,899.0,967.875)"><path id="ProcessOnPath1251" fill="#fff" d="M0 0H13.0V16.25H0Z" transform="matrix(1.0,0.0,0.0,1.0,-6.5,0.0)"/><text id="ProcessOnText1252" x="0" y="13.325" fill="#000" family="微软雅黑" font-family="微软雅黑" font-size="13" font-style="normal" font-weight="normal" size="13" text-anchor="middle" text-decoration="none">否</text></g></g><g id="ProcessOnG1253"><path id="ProcessOnPath1254" fill="none" stroke="#323232" stroke-dasharray="none" stroke-width="2" d="M182.25 296.0L65.25 296.0L65.25 1338.0L515.0 1338.0L515.0 1338.0"/><g id="ProcessOnG1255" transform="matrix(1.0,0.0,0.0,1.0,65.25,975.25)"><path id="ProcessOnPath1256" fill="#fff" d="M0 0H13.0V16.25H0Z" transform="matrix(1.0,0.0,0.0,1.0,-6.5,0.0)"/><text id="ProcessOnText1257" x="0" y="13.325" fill="#000" family="微软雅黑" font-family="微软雅黑" font-size="13" font-style="normal" font-weight="normal" size="13" text-anchor="middle" text-decoration="none">否</text></g></g><g id="ProcessOnG1258"><path id="ProcessOnPath1259" fill="none" stroke="#323232" stroke-dasharray="none" stroke-width="2" d="M699.71875 1086.0L699.71875 1105.0L750.0 1105.0"/></g><g id="ProcessOnG1260"><path id="ProcessOnPath1261" fill="none" stroke="#323232" stroke-dasharray="none" stroke-width="2" d="M801.4375 1086.0L801.4375 1105.0L748.0 1105.0"/></g></g></g></svg>